<svg width="20" height="20" viewBox="0 0 33 33" fill="none"
  xmlns="http://www.w3.org/2000/svg">
  <path d="M30.9115 0.300049H2.0881C1.61382 0.300049 1.15896 0.488458 0.823586 0.82383C0.488214 1.1592 0.299805 1.61406 0.299805 2.08835V30.9122C0.299924 31.3864 0.488386 31.8412 0.823745 32.1764C1.1591 32.5117 1.6139 32.7 2.0881 32.7H17.6055V20.1531H13.3831V15.2634H17.6055V11.6571C17.6055 7.47215 20.1615 5.1938 23.8947 5.1938C25.683 5.1938 27.2197 5.32655 27.6679 5.3864V9.75995L25.0786 9.7613C23.0482 9.7613 22.6554 10.7261 22.6554 12.1418V15.2639H27.4974L26.8669 20.1536H22.6554V32.7H30.912C31.3862 32.6999 31.8409 32.5115 32.1762 32.1761C32.5115 31.8407 32.6998 31.386 32.6998 30.9117V2.08835C32.6998 1.61406 32.5114 1.1592 32.176 0.82383C31.8407 0.488458 31.3858 0.300049 30.9115 0.300049Z" fill="black"/>
</svg>