<svg width="20" height="20" viewBox="0 0 45 45" fill="none"
  xmlns="http://www.w3.org/2000/svg">
  <path d="M22.5 4.05422C28.5077 4.05422 29.2192 4.07707 31.5918 4.18518C33.7855 4.28537 34.977 4.65188 35.7699 4.96002C36.82 5.36818 37.5695 5.8558 38.3569 6.64313C39.1444 7.43045 39.6318 8.17998 40.04 9.2301C40.3481 10.023 40.7146 11.2145 40.8148 13.4081C40.9229 15.7808 40.9458 16.4923 40.9458 22.5C40.9458 28.5079 40.9229 29.2194 40.8148 31.5919C40.7146 33.7857 40.3481 34.977 40.04 35.7699C39.6318 36.82 39.1442 37.5697 38.3569 38.3571C37.5695 39.1444 36.82 39.632 35.7699 40.04C34.977 40.3481 33.7855 40.7148 31.5918 40.8148C29.2196 40.9231 28.508 40.946 22.5 40.946C16.4918 40.946 15.7802 40.9231 13.4081 40.8148C11.2143 40.7146 10.023 40.3481 9.2301 40.04C8.17998 39.632 7.43027 39.1444 6.64295 38.3571C5.85563 37.5695 5.36801 36.82 4.96002 35.7699C4.65188 34.9771 4.2852 33.7857 4.18518 31.5919C4.07689 29.2194 4.05404 28.5079 4.05404 22.5C4.05404 16.4923 4.07689 15.7808 4.18518 13.4082C4.28537 11.2145 4.65188 10.023 4.96002 9.2301C5.36801 8.17998 5.85563 7.43045 6.64295 6.64313C7.43045 5.85563 8.17998 5.36818 9.2301 4.96002C10.0229 4.65188 11.2143 4.28537 13.4081 4.18518C15.7806 4.07707 16.4921 4.05422 22.5 4.05422ZM22.5 0C16.3893 0 15.6231 0.0258398 13.2233 0.135352C10.8283 0.244687 9.19266 0.625078 7.76162 1.18125C6.28189 1.75623 5.02717 2.52562 3.77631 3.77648C2.52545 5.02734 1.75623 6.28207 1.18125 7.76162C0.624902 9.19283 0.244687 10.8285 0.135352 13.2233C0.0258398 15.6231 0 16.3893 0 22.5C0 28.6107 0.0258398 29.3769 0.135352 31.7767C0.244687 34.1717 0.624902 35.8073 1.18125 37.2384C1.75605 38.7179 2.52545 39.9728 3.77631 41.2237C5.02717 42.4746 6.28189 43.2438 7.76162 43.8187C9.19283 44.3751 10.8283 44.7553 13.2231 44.8646C15.6231 44.9742 16.3893 45 22.5 45C28.6107 45 29.3769 44.9742 31.7767 44.8646C34.1715 44.7553 35.8072 44.3751 37.2382 43.8187C38.7179 43.2439 39.9727 42.4746 41.2235 41.2237C42.4744 39.9728 43.2438 38.7181 43.8187 37.2384C44.3749 35.8072 44.7553 34.1717 44.8646 31.7769C44.9742 29.3769 45 28.6107 45 22.5C45 16.3893 44.9742 15.6231 44.8646 13.2233C44.7553 10.8285 44.3749 9.19283 43.8187 7.7618C43.2438 6.28207 42.4744 5.02734 41.2235 3.77648C39.9727 2.52562 38.7179 1.75605 37.2384 1.18125C35.8072 0.625078 34.1715 0.244687 31.7767 0.135352C29.3769 0.0258398 28.6107 0 22.5 0ZM22.5 10.9459C16.1188 10.9459 10.9459 16.1191 10.9459 22.5C10.9459 28.8812 16.1188 34.0541 22.5 34.0541C28.881 34.0541 34.0541 28.8812 34.0541 22.5C34.0541 16.119 28.881 10.9459 22.5 10.9459ZM22.5 30.0001C18.3579 30.0001 14.9999 26.6421 14.9999 22.5C14.9999 18.3579 18.3579 14.9999 22.5 14.9999C26.6421 14.9999 30.0001 18.3579 30.0001 22.5C30.0001 26.6421 26.6421 30.0001 22.5 30.0001ZM37.2104 10.4894C37.2104 11.9807 36.0018 13.1894 34.5104 13.1894C33.0193 13.1894 31.8104 11.9807 31.8104 10.4894C31.8104 8.99824 33.0193 7.78939 34.5104 7.78939C36.0018 7.78939 37.2104 8.99824 37.2104 10.4894Z" fill="#0A0A08"/>
</svg>