<svg width="20" height="20" viewBox="0 0 37 37" fill="none"
  xmlns="http://www.w3.org/2000/svg">
  <path d="M34.6719 0.921875H2.32812C1.55029 0.921875 0.921875 1.55029 0.921875 2.32812V34.6719C0.921875 35.4497 1.55029 36.0781 2.32812 36.0781H34.6719C35.4497 36.0781 36.0781 35.4497 36.0781 34.6719V2.32812C36.0781 1.55029 35.4497 0.921875 34.6719 0.921875ZM11.3501 30.8794H6.13379V14.1011H11.3501V30.8794ZM8.74414 11.8071C8.14616 11.8071 7.56161 11.6298 7.06441 11.2976C6.56721 10.9654 6.17969 10.4932 5.95085 9.94071C5.72201 9.38825 5.66214 8.78034 5.7788 8.19385C5.89546 7.60736 6.18341 7.06863 6.60625 6.6458C7.02908 6.22296 7.56781 5.93501 8.1543 5.81835C8.74079 5.70169 9.3487 5.76156 9.90116 5.9904C10.4536 6.21924 10.9258 6.60676 11.258 7.10396C11.5903 7.60116 11.7676 8.18571 11.7676 8.78369C11.7632 10.4536 10.4097 11.8071 8.74414 11.8071ZM30.8794 30.8794H25.6675V22.7188C25.6675 20.772 25.6323 18.2715 22.9561 18.2715C20.2446 18.2715 19.8271 20.3896 19.8271 22.5781V30.8794H14.6196V14.1011H19.6206V16.395H19.6909C20.3853 15.0767 22.0859 13.6836 24.626 13.6836C29.9082 13.6836 30.8794 17.1597 30.8794 21.6772V30.8794Z" fill="black"/>
</svg>