<svg width="20" height="14" viewBox="0 0 47 33" fill="none"
  xmlns="http://www.w3.org/2000/svg">
  <path d="M46.4075 7.2455C46.4075 5.30354 45.7379 3.66291 44.3986 2.32363C43.0593 0.98434 41.4521 0.314697 39.5771 0.314697H7.03251C5.15751 0.314697 3.55036 0.98434 2.21108 2.32363C0.871791 3.66291 0.202148 5.30354 0.202148 7.2455V25.8281C0.202148 27.7701 0.871791 29.4107 2.21108 30.75C3.55036 32.0893 5.15751 32.7589 7.03251 32.7589H39.5771C41.4521 32.7589 43.0593 32.0893 44.3986 30.75C45.7379 29.4107 46.4075 27.7701 46.4075 25.8281V7.2455ZM18.6843 24.4218V6.94416L31.9432 15.683L18.6843 24.4218Z" fill="black"/>
</svg>